<svg xmlns="http://www.w3.org/2000/svg" width="400" height="300" viewBox="0 0 400 300">
  <rect width="400" height="300" fill="#f1f5f9"/>
  <path d="M180 50 L350 50 L350 250 L180 250 Z" fill="#e2e8f0"/>
  <rect x="200" y="80" width="130" height="15" rx="2" fill="#94a3b8"/>
  <rect x="200" y="105" width="100" height="10" rx="2" fill="#cbd5e1"/>
  <rect x="200" y="125" width="130" height="10" rx="2" fill="#cbd5e1"/>
  <rect x="200" y="155" width="130" height="30" rx="3" fill="#cbd5e1"/>
  <rect x="200" y="195" width="130" height="30" rx="3" fill="#cbd5e1"/>
  <rect x="200" y="235" width="130" height="30" rx="3" fill="#4f46e5"/>
  <path d="M50 120 C90 80, 140 110, 150 150 C120 200, 90 180, 50 120" fill="#8b5cf6" fill-opacity="0.7"/>
  <path d="M80 70 C130 50, 150 100, 130 130 C100 160, 65 140, 80 70" fill="#4f46e5" fill-opacity="0.6"/>
  <circle cx="90" cy="160" r="40" fill="#ec4899" fill-opacity="0.4"/>
</svg>
